<svg xmlns="http://www.w3.org/2000/svg" id="Layer_1" data-name="Layer 1" viewBox="0 0 140.64 32.57" style="width: 135px;">
	<defs>
		<style>
			.cls-1 {
			fill: #f89921;
			}
			
			.cls-2 {
			fill: #898b8d;
			}
		</style>
	</defs>
	<title>
		Veeva_Logo
	</title>
	<g>
		<path class="cls-1" d="M104.68,47.86H99.4l-9,17.87L81.51,47.86H76.32c5.6,11.2,14.17,28.37,14.17,28.37Z" transform="translate(9.64 -43.66)" />
		<path class="cls-1" d="M63.75,52.09a9.35,9.35,0,0,1,9.07,7.09H54.68a9.36,9.36,0,0,1,9.07-7.09m0,18.67a9.36,9.36,0,0,1-9.07-7.08H77.59V61.43A13.81,13.81,0,1,0,76,67.88H70.51a9.34,9.34,0,0,1-6.76,2.88" transform="translate(9.64 -43.66)" />
		<path class="cls-1" d="M117.16,70.87a9.34,9.34,0,1,1,9.34-9.5v.31a9.36,9.36,0,0,1-9.34,9.19M131,61.53V47.93h-4.5v3.41a13.84,13.84,0,1,0,0,20.37v3.44H131V61.53" transform="translate(9.64 -43.66)" />
		<path class="cls-1" d="M33,52.09a9.37,9.37,0,0,1,9.07,7.09H24A9.35,9.35,0,0,1,33,52.09m0,18.67A9.36,9.36,0,0,1,24,63.68H46.88V61.43a13.84,13.84,0,1,0-1.6,6.45H39.8A9.36,9.36,0,0,1,33,70.76" transform="translate(9.64 -43.66)" />
		<polygon class="cls-1" points="0 0 5.56 0 16.14 21.26 26.64 0 32.1 0 16.08 32.52 0 0" />
		<path class="cls-2" d="M-.82,43.72,6.42,58.15l7.22-14.43s-14.46,0-14.46,0" transform="translate(9.64 -43.66)" />
	</g>
</svg>
